<?xml version="1.0" encoding="UTF-8" standalone="no"?><!DOCTYPE svg PUBLIC "-//W3C//DTD SVG 1.1//EN" "http://www.w3.org/Graphics/SVG/1.1/DTD/svg11.dtd"><svg width="100%" height="100%" viewBox="0 0 788 785" version="1.1" xmlns="http://www.w3.org/2000/svg" xmlns:xlink="http://www.w3.org/1999/xlink" xml:space="preserve" xmlns:serif="http://www.serif.com/" style="fill-rule:evenodd;clip-rule:evenodd;stroke-linejoin:round;stroke-miterlimit:2;"><path d="M387.859,0l21.333,0c4.193,2.488 4.379,1.683 9.336,1.825c88.726,2.538 155.341,36.174 183.086,54.243c19.083,12.428 19.187,12.137 22.463,15.008c6.716,5.887 6.995,5.615 15.807,6.736c29.687,3.778 17.662,44.922 -6.56,37.144c-17.327,-5.563 -8.421,-15.762 -22.707,-25.083c-52.69,-34.377 -111.334,-51.118 -121.568,-54.04c-112.757,-32.19 -238.673,-3.128 -326.242,74.492c-50.527,44.787 -76.453,93.485 -77.204,94.621c-18.117,27.396 -44.745,97.003 -50.538,146.46c-3.986,34.033 -5.031,35.427 -0.877,39.008c13.311,11.472 3.068,28.859 -0.074,31.066c-25.23,17.716 -41.849,-14.96 -30.458,-27.66c5.976,-6.663 6.268,-6.901 6.333,-15.826c0.667,-91.844 30.865,-171.727 110.323,-260.948c42.114,-47.289 85.815,-69.125 94.371,-73.4c95.518,-47.726 154.223,-39.049 171.736,-42.262c0.655,-0.12 0.784,-1.267 1.44,-1.387Z" style="fill:#1e5430;fill-opacity:0.99;"/><path d="M449.089,463.295c7.629,-11.18 11.115,-9.868 19.248,-20.99c13.355,-18.265 23.852,-27.367 28.653,-52.345c2.826,-14.701 1.657,-20.272 1.303,-29.282c-0.858,-21.784 -5.45,-28.316 1.558,-28.317c46.618,-0.011 46.711,-0.652 50.599,0.473c1.1,0.318 1.733,0.012 17.759,28.993c27.576,49.867 25.018,50.991 26.905,58.682c1.246,5.077 8.418,34.307 -3.786,65.232c-0.98,2.483 -7.657,19.405 -15.633,29.481c-19.262,24.334 -20.991,22.796 -21.086,22.881c-3.024,2.721 -44.098,3.196 -45.204,-0.22c-10.308,-31.85 -20.37,-38.757 -25.528,-43.901c-17.568,-17.52 -19.197,-15.529 -34.58,-29.364l-0.209,-1.323Z" style="fill:#c87e47;fill-opacity:0.99;"/><path d="M731.434,248.563c0.828,-2.707 0.743,-2.65 1.535,-5.297c5.374,-17.962 43.032,-23.19 34.221,16.192c-1.954,8.735 3.624,8.022 14.182,65.176c4.56,24.686 4.487,42.811 4.7,44.142c4.737,29.66 -2.253,130.157 -40.529,198.734c-28.808,51.614 -47.237,70.989 -48.775,72.848c-9.432,11.404 -9.873,11.001 -10.663,12.014c-4.669,5.987 -5.647,4.961 -10.648,10.644c-6.154,6.993 -9.417,8.44 -11.123,10.132c-20.615,20.444 -28.543,24.778 -34.7,29.397c-19.571,14.682 -19.811,14.163 -40.729,26.973c-42.064,25.759 -88.872,37.333 -97.002,39.344c-16.052,3.969 -18.908,-0.377 -23.189,7.538c-6.16,11.389 -24.647,9.831 -32.903,0.309c-8.769,-10.114 -4.399,-33.348 17.381,-33.284c6.768,0.02 6.28,1.515 12.224,4.882c8.763,4.963 62.215,-13.446 82.697,-23.117c72.526,-34.242 114.752,-76.346 152.188,-126.901c13.436,-18.144 27.759,-46.89 29.872,-51.13c41.651,-83.591 40.489,-178.137 28.145,-229.119c-2.834,-11.703 -9.113,-46.18 -14.665,-48.971c-9.8,-4.925 -9.011,-6.142 -12.655,-16.584c0.145,-1.308 0.291,-2.616 0.436,-3.924Z" style="fill:#c97e47;fill-opacity:0.99;"/><path d="M91.124,368.671c0.252,33.868 -0.983,55.454 0.73,70.663c2.303,20.447 1.26,21.515 -13.033,36.283c-4.972,5.137 -6.863,8.289 -13.845,15.507c-13.728,14.191 -13.185,15.533 -11.276,21.37c22.958,70.192 77.471,124.225 86.494,133.168c44.913,44.517 75.908,67.353 161.068,94.799c3.77,1.215 34.318,8.624 39.872,7.619c6.334,-1.146 13.118,-13.336 31.63,-1.441c11.219,7.209 8.806,36.868 -14.234,37.096c-14.204,0.141 -14.159,-11.839 -22.723,-13.362c-99.715,-17.737 -139.299,-47.915 -183.586,-80.826c-0.51,-0.379 -39.279,-34.642 -54.171,-55.18c-0.912,-1.258 -16.984,-22.24 -18.463,-24.172c-14.844,-19.379 -54.486,-92.299 -48.499,-107.99c4.239,-11.11 40.895,-37.656 41.611,-57.551c0.933,-25.912 -10.723,-66.469 9.028,-145.178c4.849,-19.325 5.621,-19.274 4.422,-26.751c-5.359,-33.432 41.831,-35.899 36.657,-2.686c-1.978,12.699 -16.306,14.373 -17.829,18.533c-12.054,32.903 -11.331,60.068 -13.853,80.099Z" style="fill:#342f5d;fill-opacity:0.99;"/><path d="M450.21,339.071c0.39,0.268 3.629,2.491 3.946,4.401c0.422,2.096 0.15,2.104 1.163,3.985c2.353,4.972 0.583,9.473 0.379,10.694c-6.239,-2.154 -6.439,-1.294 -82.499,-0.948c-2.183,0.01 -9.789,-3.102 -11.391,22.182c-0.91,14.366 4.276,12.727 11.384,12.723c72.23,-0.046 72.424,0.965 78.351,-1.077l1.352,1.637c-2.698,4.059 -1.287,4.782 -6.194,10.782c-1.309,1.601 -0.527,1.971 -1.857,3.594c-0.096,0.117 -1.134,1.384 -1.251,1.424c-0.324,0.111 -0.482,-0.724 -0.811,-0.629c-0.219,0.063 -0.174,0.119 -2.349,1.602c-5.825,-1.408 -61.823,-0.383 -67.198,-0.284c-7.213,0.132 8.651,27.117 38.292,46.645c36.078,23.769 58.122,45.968 62.66,50.538c25.191,25.368 43.578,87.155 -12.796,137.223c-5.334,4.737 -8.038,5.503 -21.85,-9.267c-3.324,-3.555 -3.426,-5.325 12.082,-25.795c5.669,-7.483 4.474,-7.998 4.49,-8.1c1.857,-0.652 1.755,-0.713 3.605,-1.265c1.953,-0.582 6.36,-8.543 6.48,-9.265c0.669,-4.027 2.208,-3.364 2.585,-5.203c0.064,-0.313 -0.987,0.056 -0.923,-0.257l-1.508,-1.374c5.237,-7.25 3.855,-24.734 -2.53,-32.98c3.4,-5.441 -0.75,-9.03 -2.429,-12.172c-0.497,-0.861 -0.993,-1.722 -1.49,-2.583c-2.263,-2.326 -3.869,-2.698 -4.266,-2.79c-1.349,-15.798 -77.843,-57.346 -97.525,-84.862c-5.6,-7.829 -6.91,-6.922 -15.238,-23.158c-7.272,-14.177 -21.131,-58.034 6.548,-97.002c1.906,-2.683 14.221,-23.023 36.835,-35.419c4.233,-2.321 4.26,1.412 20.102,10.248c8.437,4.706 -19.468,19.291 -27.919,34.3c-2.676,4.752 2.489,3.819 68.084,3.431c2.894,-0.017 2.723,-0.588 3.689,-0.978Z" style="fill:#1e5330;fill-opacity:0.99;"/><path d="M450.21,339.071c1.412,-11.413 -28.686,-34.568 -31.775,-36.946c-42.678,-32.835 -100.478,-55.971 -107.168,-118.716c-0.296,-2.78 -3.58,-33.575 0.517,-34.945c0.417,-0.139 22.969,-1.013 25.023,0.663c7.062,5.762 -7.787,47.995 27.348,83.246c13.054,13.097 40.258,26.833 60.934,43.097c48.335,38.021 75.803,72.753 47.727,130.351c-10.286,21.102 -37.364,53.737 -42.241,53.201c-0.443,-0.049 -0.351,-0.091 -15.749,-10.755c-8.393,-5.813 -1.096,-7.244 6.022,-14.597c8.708,-8.996 18.031,-20.676 19.511,-22.04c1.201,-1.107 0.367,-1.257 0.073,-2.189c2.175,-1.484 2.131,-1.539 2.349,-1.602c0.329,-0.095 0.488,0.74 0.811,0.629c0.117,-0.04 1.155,-1.307 1.251,-1.424c1.33,-1.623 0.547,-1.993 1.857,-3.594c4.906,-6 3.496,-6.723 6.194,-10.782l-1.352,-1.637c3.992,-7.986 6.715,-25.972 4.156,-32.879c0.205,-1.22 1.974,-5.722 -0.379,-10.694c-0.388,-1.328 -0.775,-2.657 -1.163,-3.985c-0.317,-1.91 -3.556,-4.133 -3.946,-4.401Z" style="fill:#332f5c;fill-opacity:0.99;"/><path d="M455.635,532.511c0.397,0.092 2.003,0.465 4.266,2.79c0.497,0.861 0.993,1.722 1.49,2.583c1.68,3.142 5.829,6.731 2.429,12.172c-4.672,-1.26 -96.996,-1.668 -99.673,0.36c-4.195,3.177 -3.913,32.636 3.6,33.464c1.247,0.137 94.058,0.266 94.737,0.176c3.033,-0.402 2.855,-0.753 3.866,-1.019l1.508,1.374c-0.064,0.313 0.987,-0.056 0.923,0.257c-0.377,1.838 -1.916,1.176 -2.585,5.203c-0.12,0.722 -4.526,8.683 -6.48,9.265c-1.85,0.552 -1.748,0.613 -3.605,1.265c-1.426,-0.469 -80.009,-1.092 -81.293,0.51c-0.799,0.998 -1.867,2.333 8.753,13.367c14.397,14.959 27.983,24.908 30.61,26.832c0.346,0.254 12.45,9.587 13.532,10.421c7.979,6.153 20.823,8.087 6.92,18.624c-10.876,8.243 -12.37,9.247 -19.963,3.64c-5.882,-4.344 -7.97,-4.345 -25.645,-18.24c-42.485,-33.398 -76.622,-98.323 -20.246,-167.213c6.368,-7.782 6.9,-11.956 14.114,-6.833c13.085,9.292 14.477,11.124 10.615,15.437c-21,23.453 -22.945,29.978 -23.879,33.107c-1.581,5.3 37.865,2.523 79.562,3.373c3.361,0.068 3.335,0.256 6.441,-0.915Z" style="fill:#332f5c;fill-opacity:0.99;"/><path d="M310.528,301.267c-6.09,-0.142 -9.808,-0.458 -9.411,2.085c0.04,0.257 11.229,8.364 14.799,26.638c1.783,9.127 -11.112,11.765 -13.02,5.224c-7.124,-24.425 -10.638,-23.658 -12.232,-22.384c-4.192,3.35 10.423,32.031 -37.491,28.12c-14.297,-1.167 -10.753,-6.914 -8.135,-15.002c4.719,-14.579 12.216,-17.35 7.934,-18.079c-1.073,-0.183 -15.149,1.394 -24.523,-19.459c-7.502,-16.688 -1.259,-16.908 2.142,-18.236c12.418,-4.847 15.729,-4.639 14.226,-12.1c-1.249,-6.197 -3.318,-10.426 4.393,-30.734c2.765,-7.283 32.096,4.175 36.994,7.168c20.924,12.785 10.8,29.464 17.419,26.829c4.062,-1.617 7.981,-6.282 25.614,-5.087c18.215,1.234 3.311,30.373 -0.349,34.831c-4.433,5.399 -6.381,9.627 -18.359,10.185Z" style="fill:#1e5430;fill-opacity:0.99;"/><path d="M296.472,468.704c1.685,12.283 2.088,12.121 5.714,24.068c4.979,16.402 -49.914,43.052 -73.966,-2.945c-2.85,-5.45 -9.94,-38.664 11.703,-44.905c16.653,-4.802 17.252,-3.998 30.455,-15.115c4.54,-3.823 12.478,8.219 20.462,11.543c7.311,3.043 11.71,1.942 9.234,11.372c-3.722,14.178 -3.296,14.251 -3.603,15.982Z" style="fill:#342f5d;fill-opacity:0.99;"/><path d="M383.24,123.336c-0.36,-7.336 2.598,-9.065 -3.709,-12.807c-19.075,-11.318 -6.519,-30.547 2.992,-32.541c24.963,-5.233 27.72,24.85 16.937,31.415c-4.381,2.667 -5.394,2.526 -5.604,8.613c-0.7,20.327 0.726,20.613 4.872,25.133c9.716,10.594 1.09,46.767 5.209,49.353c1.389,0.872 3.376,-2.705 4.212,-3.54c6.775,-6.767 5.683,-9.39 5.68,-30.962c-0.004,-27.744 -2.618,-29.057 4.42,-36.269c15.866,-16.256 16.156,-15.843 31.903,-32.089c7.67,-7.913 3.191,-9.569 4.149,-15.664c3.91,-24.874 39.408,-16.415 35.052,5.382c-3.709,18.561 -18.593,12.853 -24.292,14.148c-3.992,0.908 -3.526,1.91 -36.925,35.433c-7.869,7.898 -1.336,29.793 -2.551,49.08c-1.088,17.279 -11.206,20.396 -32.68,43.714c-3.792,4.117 -5.081,5.952 -12.766,-0.087c-3.669,-2.883 -5.02,-5.006 4.74,-14.634c9.966,-9.831 7.766,-11.255 7.786,-22.35c0.053,-28.52 0.885,-29.348 -4.566,-34.898c-6.2,-6.312 -4.938,-7.298 -4.859,-26.429Zm82.608,-46.642c0.217,-0.772 0.383,-3.819 3.336,-5.374c0.463,-0.244 4.042,-2.128 6.532,0.178c7.242,6.708 -6.589,18.627 -9.868,5.196Zm-83.995,18.68c0.101,-0.386 0.415,-4.181 3.329,-5.396c0.466,-0.194 3.774,-1.573 6.285,0.505c7.975,6.598 -6.713,18.492 -9.614,4.891Z" style="fill:#1e5430;fill-opacity:0.98;"/><path d="M259.143,388.69c-0.296,25.478 11.692,28.014 1.833,35.696c-37.292,29.057 -73.936,-7.742 -66.738,-39.78c8.72,-38.817 55.688,-37.201 68.515,-21.442c1.188,1.459 1.599,2.571 0.567,6.684c-2.368,9.436 -2.512,9.316 -4.176,18.841Z" style="fill:#342f5d;fill-opacity:0.99;"/><path d="M260.623,540.679c0.169,-3.092 -0.502,-13.065 4.702,-14.014c18.635,-3.397 20.458,-0.258 41.475,-17.675c3.777,-3.13 5.02,-2.798 20.767,8.099c5.158,3.57 2.105,4.8 -0.408,10.549c-17.564,40.184 8.593,60.178 -7.298,60.183c-60.093,0.019 -59.012,-44.982 -59.238,-47.143Z" style="fill:#342f5d;fill-opacity:0.99;"/><path d="M489.952,249.997c2.638,-22.011 1.205,-30.31 10.659,-50.917c11.575,-25.23 20.728,-48.191 24.535,-49.25c2.08,-0.579 22.165,-0.34 22.815,-0.244c2.168,0.319 2.666,1.705 -3.33,14.836c-8.901,19.492 -17.054,38.386 -17.441,39.203c-16.151,34.124 -9.035,64.774 -14.076,81.015c-1.676,5.399 -24.475,3.801 -25.314,1.382c-0.371,-1.07 1.831,-32.934 2.152,-36.026Z" style="fill:#1e5430;fill-opacity:0.99;"/><path d="M321.716,374.005c-3.86,46.585 16.929,53.997 0.676,59.638c-42.938,14.903 -76.561,-53.862 -29.012,-77.938c11.788,-5.969 16.318,-7.912 27.865,-4.548c4.871,1.419 2.15,3.506 0.471,22.848Z" style="fill:#342f5d;fill-opacity:0.99;"/><path d="M475.861,292.109c86.666,0.227 93.642,-2.001 90.137,4.31c-7.468,13.447 -10.016,32.363 -18.127,32.474c-52.248,0.717 -53.292,0.675 -55.482,-3.194c-4.727,-8.354 -5.11,-8.045 -14.706,-21.336c-3.558,-4.928 -13.668,-12.984 -5.923,-12.359c1.363,0.11 2.738,-0.005 4.101,0.105Z" style="fill:#c97f48;fill-opacity:0.99;"/><path d="M445.749,191.334c-0.415,12.435 -5.375,10.134 -21.731,29.462c-1.408,1.664 -14.676,17.343 -20.186,18.308c-1.411,0.247 -8.906,-2.794 -5.891,-8.062c6.877,-12.016 36.255,-30.484 36.227,-43.707c-0.034,-16.401 0.115,-16.865 7.311,-25.089c18.787,-21.469 19.923,-21.157 19.735,-24.247c-0.215,-3.538 -4.615,-25.792 18.681,-24.407c23.423,1.393 20.872,38.999 -4.068,35.326c-9.827,-1.447 -8.122,3.319 -26.889,22.16c-4.345,4.362 -3.189,8.537 -3.19,20.255Zm38.809,-60.012c-3.207,13.158 -17.957,2.338 -9.66,-4.893c6.804,-5.93 9.439,4.056 9.66,4.893Z" style="fill:#1e5430;fill-opacity:0.97;"/><path d="M307.426,471.33c0.264,-6.417 0.296,-19.256 13.45,-27.217c14.023,-8.487 14.733,-2.85 16.054,-0.638c18.263,30.568 29.957,26.566 25.409,31.688c-6.013,6.772 -6.312,6.306 -12.042,13.319c-14.996,18.354 -13.547,19.404 -14.947,20.911c-2.771,2.983 -25.802,-8.13 -27.925,-38.062Z" style="fill:#342f5d;fill-opacity:0.99;"/><path d="M622.524,637.235c-1.348,-0.091 -2.701,-0.076 -4.048,-0.167c-21.846,-1.47 -22.351,-54.231 -0.017,-58.066c25.23,-4.333 28.843,31.718 20.73,47.335c-5.814,11.191 -10.903,10.663 -16.665,10.899Zm-7.427,-21.977c-0.12,-1.708 -1.052,-15.007 2.016,-21.304c6.704,-13.761 18.254,5.87 11.878,25.313c-3.759,11.462 -11.013,7.686 -13.894,-4.009Z" style="fill:#342f5d;fill-opacity:0.98;"/><path d="M237.699,594.004c-0.585,6.088 0.746,16.604 -9.657,25.55c-13.708,11.788 -37.483,-2.779 -29.518,-38.888c5.033,-22.819 35.217,-23.591 38.788,5.321c0,0 0.356,7.376 0.387,8.017Zm-13.067,3.989c-2.312,22.403 -11.899,10.295 -12.478,9.199c-8.219,-15.565 3.81,-46.543 11.503,-25.123c0.995,2.771 0.977,14.648 0.975,15.924Z" style="fill:#342f5d;fill-opacity:0.98;"/><path d="M299.114,132.663c-0.094,10.633 -0.191,23.96 -16.649,29.088c-1.648,0.514 -23.037,1.603 -23.163,-27.744c-0.017,-3.993 -1.77,-24.49 14,-30.34c14.491,-5.376 21.294,7.5 22.192,9.2c4.687,8.872 3.583,17.586 3.621,19.796Zm-28.038,-0.002c0.069,-1.288 0.576,-10.73 3.87,-15.654c10.658,-15.935 15.595,22.515 8.435,31.275c-8.271,10.119 -12.058,-14.049 -12.304,-15.621Z" style="fill:#342f5d;fill-opacity:0.98;"/><path d="M684.461,536.667c-1.409,32.077 -25.239,27.962 -32.31,21.036c-11.026,-10.8 -14.739,-57.838 18.441,-53.413c3.583,0.478 7.616,4.939 8.144,5.523c7.352,8.133 5.72,26.345 5.724,26.853Zm-28.008,-5.314c1.647,-9.193 -0.086,-9.887 3.825,-14.323c15.235,-17.281 16.654,41.749 2.591,33.744c-4.141,-2.357 -6.2,-17.799 -6.416,-19.421Z" style="fill:#342f5d;fill-opacity:0.98;"/><path d="M522.522,630.776c5.878,0.374 11.703,-0.443 17.004,10.054c3.874,7.673 6.277,25.992 -1.366,39.611c-5.802,10.34 -18.748,12.19 -27.331,3.91c-7.438,-7.175 -8.765,-21.47 -8.446,-23.701c2.427,-16.985 3.088,-28.566 20.139,-29.875Zm8.787,28.551c-0.264,1.603 -2.967,18.017 -7.394,18.92c-12.704,2.593 -11.23,-49.776 2.827,-35.122c3.933,4.1 4.497,14.857 4.567,16.202Z" style="fill:#342f5d;fill-opacity:0.98;"/><path d="M211.861,231.897c-9.042,-0.546 -12.925,-0.521 -18.652,-16.569c-5.288,-14.818 3.126,-49.755 25.315,-39.991c19.639,8.642 20.456,54.938 -6.663,56.56Zm-7.421,-32.554c0.133,-1.13 1.339,-11.35 4.684,-13.431c13.651,-8.493 13.534,34.486 4.067,34.653c-11.005,0.194 -8.751,-21.064 -8.752,-21.222Z" style="fill:#342f5d;fill-opacity:0.98;"/><path d="M256.626,673.998c0.059,-1.884 0.519,-16.633 5.614,-22.884c0.472,-0.579 3.881,-4.761 7.147,-6.007c34.668,-13.228 35.361,62.684 5.112,57.087c-20.262,-3.749 -17.827,-27.031 -17.873,-28.196Zm11.809,-0.003c0.039,-0.523 -0.129,-12.85 4.554,-17.532c12.741,-12.741 15.844,36.434 2.864,33.566c-7.386,-1.632 -7.052,-13.408 -7.417,-16.033Z" style="fill:#342f5d;fill-opacity:0.98;"/><path d="M187.146,307.408c-5.424,29.576 -31.656,28.234 -37.558,5.146c-1.761,-6.887 -6.222,-33.473 11.626,-39.827c16.259,-5.789 29.443,6.232 25.932,34.681Zm-11.851,-13.405c0.005,2.279 2.061,22.226 -7.477,23.503c-10.593,1.418 -10.87,-48.053 4.289,-33.09c3.207,3.166 2.9,6.059 3.188,9.588Z" style="fill:#342f5d;fill-opacity:0.98;"/><path d="M691.301,325.999c0.093,-1.945 0.934,-19.593 6.337,-23.502c15.826,-11.448 25.73,-0.447 27.187,1.171c7.356,8.171 13.722,49.456 -15.632,51.671c-16.777,1.266 -17.792,-26.593 -17.892,-29.34Zm28.008,0.007c-0.113,0.87 0.344,13.685 -6.279,16.911c-11.789,5.744 -13.068,-39.165 0.326,-34.695c2.494,0.832 5.258,8.95 5.953,17.784Z" style="fill:#342f5d;fill-opacity:0.98;"/><path d="M119.279,497.998c0.071,-1.788 0.018,-3.579 0.09,-5.367c1.053,-26.416 35.841,-29.812 38.209,-0.011c3.379,42.507 -23.512,36.281 -24.366,35.978c-14.991,-5.312 -13.874,-20.189 -13.933,-30.6Zm11.804,5.326c-0.002,-1.271 -0.016,-13.728 1.098,-15.85c9.416,-17.933 20.537,13.943 9.942,28.867c-0.79,1.113 -7.74,6.743 -11.04,-13.017Z" style="fill:#342f5d;fill-opacity:0.98;"/><path d="M668.573,256.677c-0.237,-8.734 -0.212,-8.68 -0.256,-9.433c-0.274,-4.621 -2.524,-1.746 -7.087,-0.919c-5.709,1.035 -4.704,-8.245 -4.145,-9.703c0.983,-2.566 17.799,-8.924 21.431,-9.422c3.989,-0.547 3.188,2.322 3.136,37.468c-0.022,14.72 2.905,22.97 -11.278,19.215c-2.109,-0.558 -4.482,-1.187 -1.8,-27.206Z" style="fill:#1e5430;fill-opacity:0.98;"/><path d="M325.907,715.336c-0.418,-19.79 -0.063,-19.76 -0.612,-21.381c-1.053,-3.107 -2.132,-1.397 -5.409,-0.979c-6.498,0.829 -9.697,-10.411 10.624,-15.057c8.99,-2.056 7.166,2.926 7.162,12.081c-0.018,42.085 0.628,44.004 -3.093,44.373c-11.024,1.095 -8.901,-4.544 -8.671,-19.038Z" style="fill:#1e5430;fill-opacity:0.98;"/><path d="M148.444,420.668c-0.142,6.5 -2.199,6.241 -8.645,5.751c-4.262,-0.324 -3.01,-5.098 -3.16,-36.406c-0.042,-8.811 -8.288,0.592 -10.168,-3.986c-5.118,-12.464 19.441,-17.986 21.345,-13.341c0.653,1.593 0.564,1.578 0.628,47.982Z" style="fill:#1e5430;fill-opacity:0.99;"/><path d="M656.654,444.669c-0.316,-4.696 -0.362,-6.722 -4.737,-5.164c-5.284,1.881 -6.203,-0.026 -5.851,-5.566c0.335,-5.277 20.762,-11.434 21.782,-7.936c0.521,1.788 0.531,40.652 0.454,50.671c-0.039,5.062 -3.535,4.685 -8.488,4.412c-3.911,-0.215 -3.104,-2.196 -3.16,-36.418Z" style="fill:#1e5430;fill-opacity:0.98;"/><path d="M580.45,662.001c-0.137,6.515 -2.224,6.22 -8.645,5.704c-4.327,-0.348 -3.031,-7.726 -3.148,-28.369c-0.045,-7.984 1.565,-12.87 -5.951,-10.21c-8.081,2.86 -5.472,-8.528 -1.308,-10.748c0.363,-0.193 12.165,-6.792 17.201,-4.498c1.998,0.91 1.748,1.691 1.851,48.122Z" style="fill:#1e5430;fill-opacity:0.98;"/><path d="M652.455,380.666c0.093,5.034 1.467,9.244 -7.313,8.38c-4.53,-0.446 -3.001,-7.696 -3.174,-36.378c-0.068,-11.275 -8.386,-2.242 -11.455,-5.322c-2.316,-2.324 -1.505,-11.564 14.643,-14.89c6.842,-1.409 7.108,2.203 7.153,2.817c0.136,1.848 0.122,10.994 0.146,45.393Z" style="fill:#1e5430;fill-opacity:0.98;"/><path d="M189.193,526.559c-7.591,-0.8 -5.824,-3.603 -5.854,-11.225c-0.089,-22.837 1.251,-30.427 -3.537,-29.661c-0.405,0.065 -6.786,3.258 -5.757,-6.388c0.59,-5.531 17.792,-10.624 19.675,-4.109c1.707,5.908 2.6,49.693 -0.459,50.961c-0.302,0.125 -0.301,0.031 -4.068,0.422Z" style="fill:#1e5430;fill-opacity:0.99;"/><path d="M713.742,465.999c-0.188,4.709 1.131,16.422 -8.53,13.276c-7.795,-2.539 0.788,-39.5 -5.34,-39.551c-2.823,-0.024 -7.76,3.984 -7.204,-5.751c0.405,-7.098 18.605,-11.958 19.666,-5.44c1.553,9.543 1.349,12.511 1.408,37.466Z" style="fill:#1e5530;fill-opacity:0.99;"/><path d="M228.46,137.996c0.692,7.851 2.069,9.789 -1.9,9.83c-0.669,0.007 -7.46,0.076 -8.177,-1.76c-1.338,-3.425 1.27,-39.857 -1.405,-40.955c-1.151,-0.472 -11.944,4.613 -9.491,-5.866c1.101,-4.705 15.067,-8.453 17.726,-8.288c3.903,0.242 3.221,2.36 3.247,47.038Z" style="fill:#1e5430;fill-opacity:0.98;"/><path d="M172.46,601.996c0.777,7.666 3.116,11.321 -4.618,11.205c-8.574,-0.129 -5.803,-4.04 -5.819,-12.534c-0.046,-24.893 1.079,-30.698 -3.496,-29.328c-2.798,0.838 -7.601,4.189 -7.186,-4.029c0.377,-7.462 21.009,-15.123 21.087,-5.328c0.012,1.5 0.016,12.979 0.031,40.014Z" style="fill:#1e5430;fill-opacity:0.98;"/><path d="M605.954,268.668c-0.501,-4.788 1.361,-7.339 -3.438,-6.876c-0.317,0.031 -4.465,1.61 -6.29,-1.317c-6.011,-9.64 19.491,-14.714 21.102,-10.537c1.307,3.389 0.516,3.534 0.4,45.404c-0.014,5.052 -2.167,3.874 -7.255,3.28c-5.813,-0.678 -4.506,-3.325 -4.519,-29.954Z" style="fill:#1e5430;fill-opacity:0.99;"/><path d="M161.814,209.999c0.073,17.752 2.688,24.191 -7.35,23.069c-4.3,-0.481 -2.988,-5.832 -3.147,-36.386c-0.039,-7.4 -7.666,-0.574 -9.01,-3.857c-0.01,-0.025 -4.245,-6.807 4.428,-10.351c2.048,-0.837 8.932,-2.867 13.236,-0.661c2.408,1.234 1.825,6.557 1.844,28.186Z" style="fill:#1e5430;fill-opacity:0.99;"/><path d="M236.458,651.334c0.368,43.276 -0.656,43.676 -1.884,44.119c-0.425,0.153 -8.32,1.754 -8.5,-2.726c-0.617,-15.35 1.667,-37.675 -2.199,-37.578c-5.866,0.147 -7.947,0.703 -7.846,-5.148c0.016,-0.904 0.061,-3.526 9.186,-6.578c1.781,-0.596 6.398,-0.667 8.021,-0.293c4.313,0.996 3.204,7.731 3.222,8.205Z" style="fill:#1e5431;fill-opacity:0.99;"/><path d="M454.156,343.472c0.388,1.328 0.775,2.657 1.163,3.985c-1.013,-1.88 -0.74,-1.889 -1.163,-3.985Z" style="fill:#2a3e49;fill-opacity:0.91;"/><path d="M731.434,248.563c-0.145,1.308 -0.291,2.616 -0.436,3.924c-0.301,-2.046 -0.138,-1.951 0.436,-3.924Z" style="fill:#ae7850;fill-opacity:0.31;"/><path d="M459.901,535.301c0.497,0.861 0.993,1.722 1.49,2.583c-0.497,-0.861 -0.993,-1.722 -1.49,-2.583Z" style="fill:#284046;fill-opacity:0.93;"/></svg>